# xmcd
#
# Track frame offsets: 
#        150
#        18175
#        35273
#        54193
#        68035
#        86397
#        108526
#        126541
#        144752
#        170475
#        188931
#        222065
#        259330
#        287240
#
# Disc length: 4207 seconds
#
# Revision: 0
# Processed by: cddbd v1.5.2PL0 Copyright (c) Steve Scherf et al.
# Submitted via: ExactAudioCopy v0.95a4
#
DISCID=c4106d0e
DTITLE=Simian Mobile Disco - Temporary Pleasure
DYEAR=1900
DGENRE=Electronic
TTITLE0=Cream Dream
TTITLE1=Audacity Of Huge
TTITLE2=10000 Horses Can't Be Wrong
TTITLE3=Cruel Intentions
TTITLE4=Off The Map
TTITLE5=Synthesise
TTITLE6=Bad Blood
TTITLE7=Turn Up The Dial
TTITLE8=Ambulance
TTITLE9=Pinball
TTITLE10=Flea In Your Ear
TTITLE11=Babaghanoush
TTITLE12=Do Not Exceed Stated Dose
TTITLE13=Synthesise (The Lowbrows Remix)
EXTD=
EXTT0=
EXTT1=
EXTT2=
EXTT3=
EXTT4=
EXTT5=
EXTT6=
EXTT7=
EXTT8=
EXTT9=
EXTT10=
EXTT11=
EXTT12=
EXTT13=
PLAYORDER=
